<svg width="600" height="900" viewBox="0 0 600 900" xmlns="http://www.w3.org/2000/svg">
     <defs>
        <mask id="cutout">
            <rect x="0" y="0" width="600" height="900" fill="white" />
            <rect x="20" y="60" width="272.5" height="236.66666666666666" fill="black" /><rect x="307.5" y="60" width="272.5" height="236.66666666666666" fill="black" /><rect x="20" y="311.66666666666663" width="272.5" height="236.66666666666666" fill="black" /><rect x="307.5" y="311.66666666666663" width="272.5" height="236.66666666666666" fill="black" /><rect x="20" y="563.3333333333333" width="272.5" height="236.66666666666666" fill="black" /><rect x="307.5" y="563.3333333333333" width="272.5" height="236.66666666666666" fill="black" />
        </mask>
     </defs>
     
     <rect x="0" y="0" width="600" height="900" fill="#fdf2f8" mask="url(#cutout)" />
     
     <!-- Borders around holes -->
      <rect x="20" y="60" width="272.5" height="236.66666666666666" fill="none" stroke="#f9a8d4" stroke-width="4" /><rect x="20" y="60" width="272.5" height="236.66666666666666" fill="transparent" /><rect x="307.5" y="60" width="272.5" height="236.66666666666666" fill="none" stroke="#f9a8d4" stroke-width="4" /><rect x="307.5" y="60" width="272.5" height="236.66666666666666" fill="transparent" /><rect x="20" y="311.66666666666663" width="272.5" height="236.66666666666666" fill="none" stroke="#f9a8d4" stroke-width="4" /><rect x="20" y="311.66666666666663" width="272.5" height="236.66666666666666" fill="transparent" /><rect x="307.5" y="311.66666666666663" width="272.5" height="236.66666666666666" fill="none" stroke="#f9a8d4" stroke-width="4" /><rect x="307.5" y="311.66666666666663" width="272.5" height="236.66666666666666" fill="transparent" /><rect x="20" y="563.3333333333333" width="272.5" height="236.66666666666666" fill="none" stroke="#f9a8d4" stroke-width="4" /><rect x="20" y="563.3333333333333" width="272.5" height="236.66666666666666" fill="transparent" /><rect x="307.5" y="563.3333333333333" width="272.5" height="236.66666666666666" fill="none" stroke="#f9a8d4" stroke-width="4" /><rect x="307.5" y="563.3333333333333" width="272.5" height="236.66666666666666" fill="transparent" />
      
      <!-- Text on top -->
      <text x="300" y="860" font-family="Arial, sans-serif" font-size="30" fill="#f472b6" text-anchor="middle" font-weight="bold">Loopy</text>
      <text x="300" y="30" font-family="Arial, sans-serif" font-size="20" fill="#f472b6" text-anchor="middle">Photo Palette</text>
      
</svg>