<svg width="600" height="1800" viewBox="0 0 600 1800" xmlns="http://www.w3.org/2000/svg">
     <defs>
        <mask id="cutout">
            <rect x="0" y="0" width="600" height="1800" fill="white" />
            <rect x="20" y="60" width="560" height="398.75" fill="black" /><rect x="20" y="473.75" width="560" height="398.75" fill="black" /><rect x="20" y="887.5" width="560" height="398.75" fill="black" /><rect x="20" y="1301.25" width="560" height="398.75" fill="black" />
        </mask>
     </defs>
     
     <rect x="0" y="0" width="600" height="1800" fill="#fef2f2" mask="url(#cutout)" />
     
     <!-- Borders around holes -->
      <rect x="20" y="60" width="560" height="398.75" fill="none" stroke="#ef4444" stroke-width="4" /><rect x="20" y="60" width="560" height="398.75" fill="transparent" /><rect x="20" y="473.75" width="560" height="398.75" fill="none" stroke="#ef4444" stroke-width="4" /><rect x="20" y="473.75" width="560" height="398.75" fill="transparent" /><rect x="20" y="887.5" width="560" height="398.75" fill="none" stroke="#ef4444" stroke-width="4" /><rect x="20" y="887.5" width="560" height="398.75" fill="transparent" /><rect x="20" y="1301.25" width="560" height="398.75" fill="none" stroke="#ef4444" stroke-width="4" /><rect x="20" y="1301.25" width="560" height="398.75" fill="transparent" />
      
      <!-- Text on top -->
      <text x="300" y="1760" font-family="Arial, sans-serif" font-size="30" fill="#ef4444" text-anchor="middle" font-weight="bold">Quốc Khánh 2/9</text>
      <text x="300" y="30" font-family="Arial, sans-serif" font-size="20" fill="#ef4444" text-anchor="middle">Photo Palette</text>
      
</svg>